<svg xmlns="http://www.w3.org/2000/svg" viewBox="0 0 12.03 11.99"><defs><style>.cls-1{fill:#43afff;}</style></defs><g id="Capa_2" data-name="Capa 2"><g id="Layer_1" data-name="Layer 1"><path class="cls-1" d="M6,0A6,6,0,1,1,6,12a6,6,0,0,1-4.26-1.75,6,6,0,0,1,0-8.49A6,6,0,0,1,6,0ZM9.83,2.2a5.41,5.41,0,0,0-7.62,0,5.36,5.36,0,0,0,0,7.6A5.38,5.38,0,0,0,9.83,2.2Z"/><path class="cls-1" d="M7,8.14,5.72,5.85l-.11-.2.16-.16,3.67-4c.28.22.59.5.86.73L7.87,5.52l.67,1.23.11.19-.16.17-1,1.09-.3.33Zm-.6-2.39.94,1.71.56-.61-.66-1.2-.1-.18.12-.16L9.13,2.74Z"/><path class="cls-1" d="M4.81,3.67,6.07,6l.11.19L6,6.32l-3.62,4a5.36,5.36,0,0,1-.83-.8L3.94,6.29,3.26,5.06l-.11-.19.15-.16,1-1.11.29-.32Zm.6,2.4L4.47,4.35,3.92,5l.66,1.21.09.17-.11.16L2.67,9.07Z"/></g></g></svg>