<svg xmlns="http://www.w3.org/2000/svg" viewBox="0 0 11.66 11.95"><defs><style>.cls-1{fill:#0fba14;}</style></defs><g id="Capa_2" data-name="Capa 2"><g id="Layer_1" data-name="Layer 1"><path class="cls-1" d="M5.83,0A5.77,5.77,0,0,1,10,1.75a6.1,6.1,0,0,1,0,8.45,5.74,5.74,0,0,1-8.25,0,6.07,6.07,0,0,1,0-8.45A5.75,5.75,0,0,1,5.83,0Zm3.7,2.19a5.13,5.13,0,0,0-7.39,0,5.45,5.45,0,0,0,0,7.57,5.13,5.13,0,0,0,7.39,0,5.45,5.45,0,0,0,0-7.57Z"/><path class="cls-1" d="M6.77,8.11,5.55,5.83l-.11-.2.15-.16,3.56-4c.27.22.58.5.83.74L7.62,5.5l.66,1.23.1.19-.15.16-1,1.09L7,8.5ZM6.19,5.73l.91,1.7.54-.61L7,5.63l-.09-.18L7,5.3,8.85,2.73Z"/><path class="cls-1" d="M4.66,3.65,5.89,5.94l.1.2-.14.16-3.52,4a4.5,4.5,0,0,1-.79-.79l2.28-3.2L3.16,5.05l-.11-.2.15-.16,1-1.1.28-.32ZM5.25,6,4.33,4.33,3.8,5l.64,1.19.09.18-.11.16L2.59,9Z"/></g></g></svg>