<svg xmlns="http://www.w3.org/2000/svg" viewBox="0 0 12.1 12.06"><defs><style>.cls-1{fill:#fff;}</style></defs><g id="Capa_2" data-name="Capa 2"><g id="Layer_1" data-name="Layer 1"><path class="cls-1" d="M6.05,0a6,6,0,0,1,4.28,10.29A6,6,0,1,1,1.77,1.76,6.06,6.06,0,0,1,6.05,0ZM9.88,2.21A5.38,5.38,0,1,0,11.47,6,5.39,5.39,0,0,0,9.88,2.21Z"/><path class="cls-1" d="M7,8.18,5.75,5.88l-.11-.2.16-.16,3.69-4c.28.22.6.5.86.73L7.91,5.55l.67,1.24L8.69,7l-.15.16-1,1.11-.3.33Zm-.6-2.4L7.36,7.5l.56-.61L7.26,5.68l-.1-.18.12-.16,1.9-2.59Z"/><path class="cls-1" d="M4.84,3.69,6.11,6l.1.19-.15.17-3.64,4a4.57,4.57,0,0,1-.83-.8L4,6.33,3.27,5.09l-.1-.19.15-.17,1-1.11.3-.32Zm.6,2.41-1-1.73L3.94,5,4.6,6.2l.1.18-.12.15L2.69,9.12Z"/></g></g></svg>